<?xml version="1.0" encoding="utf-8"?>
<!-- Generator: Adobe Illustrator 19.1.0, SVG Export Plug-In . SVG Version: 6.00 Build 0)  -->
<svg version="1.2" baseProfile="tiny" id="Layer_1" xmlns="http://www.w3.org/2000/svg" xmlns:xlink="http://www.w3.org/1999/xlink"
	 x="0px" y="0px" viewBox="0 0 32 32" xml:space="preserve">
<g>
	<path d="M29.7,15.8c-2.5-5.3-7.9-8.7-13.7-8.7S4.8,10.5,2.3,15.8L2,16.4L2.3,17c2.5,5.3,7.9,8.7,13.7,8.7s11.2-3.4,13.7-8.7
		l0.3-0.6L29.7,15.8z M21.5,14.5c0,3-2.4,5.5-5.5,5.5s-5.5-2.4-5.5-5.5c0-1.5,0.6-2.8,1.6-3.8c1.2-0.4,2.5-0.6,3.9-0.6
		s2.6,0.2,3.9,0.6C20.9,11.6,21.5,13,21.5,14.5z M16,22.8c-4.5,0-8.6-2.5-10.7-6.4c1.2-2.2,3-3.9,5.1-5c-0.5,0.9-0.8,2-0.8,3.1
		c0,3.5,2.9,6.4,6.4,6.4s6.4-2.9,6.4-6.4c0-1.1-0.3-2.2-0.8-3.1c2.1,1.1,3.9,2.9,5.1,5C24.6,20.3,20.5,22.8,16,22.8z"/>
	<path d="M14.1,14.9c-0.3,0-0.6-0.1-0.9-0.2c0.1,1.4,1.3,2.6,2.8,2.6c1.6,0,2.8-1.3,2.8-2.8c0-1.5-1.1-2.7-2.6-2.8
		c0.1,0.3,0.2,0.6,0.2,0.9C16.4,13.9,15.4,14.9,14.1,14.9z"/>
</g>
</svg>
